<svg xmlns="http://www.w3.org/2000/svg" viewBox="0 0 152 80">
  <defs>
    <style>
      .a {
        fill: #231f20;
        fill-rule: evenodd;
      }
    </style>
  </defs>
  <title>logo</title>
  <path class="a" d="M24.51362,25.53435a8.08616,8.08616,0,0,1,5.6538,2.4886v0.0058a1.17285,1.17285,0,0,1,1.1617-1.2477l0.1688,0.0004a1.27823,1.27823,0,0,1,1.2519,1.3145l-0.0802,11.1411a0.72275,0.72275,0,0,0,1.2061.6475c1.8027-1.825,4.0015-9.4208-1.0054-13.8705A12.07288,12.07288,0,0,0,18.524,24.77935a10.83543,10.83543,0,0,0-3.72941,12.9798c2.372,5.5924,9.2696,7.3074,13.3893,5.6817,2.0862-.8235,3.025,1.9953.8583,2.8968-3.2747,1.3658-12.35719,1.156-16.5439-6.2274a13.45133,13.45133,0,0,1,5.03-18.1838,14.839,14.839,0,0,1,18.0916,2.4668c4.7952,5.0855,4.4406,14.5372-.303,18.1783a3.29292,3.29292,0,0,1-5.2703-2.4307l-0.01559-.796a7.93337,7.93337,0,0,1-5.64141,2.2943,8.22866,8.22866,0,0,1-7.9485-8.0709,8.27443,8.27443,0,0,1,8.0725-8.0339h0Zm5.3021,7.8287a5.07564,5.07564,0,0,0-5.2342-5.0371l-0.1052-.001c-3.2274-.025-5.0372,2.4999-5.05929,5.3823a4.908,4.908,0,0,0,4.96409,5.3057,5.25124,5.25124,0,0,0,5.4376-5.0196Zm77.9027,7.8991a1.594,1.594,0,0,0-1.741-1.5471,1.61175,1.61175,0,0,0-1.751,1.4338l-0.0098,1.1772a1.61007,1.61007,0,0,0,1.702,1.4678,1.64275,1.64275,0,0,0,1.78741-1.3831Zm11.5434-15.4316a9.26429,9.26429,0,0,0-9.0715,8.9688l-0.0568,7.3646a1.65237,1.65237,0,0,0,1.6,1.6744,1.67678,1.67678,0,0,0,1.7608-1.5977l0.0575-7.4767a5.7654,5.7654,0,0,1,5.6626-5.5739,1.69726,1.69726,0,0,0,1.77861-1.689A1.65456,1.65456,0,0,0,119.26182,25.83055Zm20.2303,0.1559a1.68133,1.68133,0,0,0-1.7149,1.6172l-0.0565,7.4107a5.7,5.7,0,0,1-11.399-.0344l0.0572-7.4234a1.70041,1.70041,0,0,0-3.3991-.0594l-0.05679,7.3993a9.0945,9.0945,0,0,0,18.18729.1621l0.0575-7.4247A1.663,1.663,0,0,0,139.49212,25.98645Zm-49.258-4.0632a1.76241,1.76241,0,0,0-3.4865-.027l-0.0075.9366a1.79646,1.79646,0,0,0,3.4858.1062Zm-31.5592,3.454a7.491,7.491,0,0,0-4.8085,2.0017,6.1176,6.1176,0,0,0-4.0226-2.0615,5.85531,5.85531,0,0,0-3.958,1.1532,1.59728,1.59728,0,0,0-1.4796-1.2107,1.73468,1.73468,0,0,0-1.6756,1.7985c-0.0085,1.121-.103,14.5544-0.103,14.5544a1.72921,1.72921,0,0,0,1.7205,1.6965,1.67959,1.67959,0,0,0,1.7582-1.675l0.0828-10.7972c0.0081-1.0505,1.814-2.2794,3.3316-2.2479a2.377,2.377,0,0,1,2.10431,2.495l-0.07271,10.617a1.81,1.81,0,0,0,1.78871,1.6724,1.72546,1.72546,0,0,0,1.803-1.6335L55.22652,31.01c0.01-1.3146,2.016-2.4015,3.3828-2.3203a2.4,2.4,0,0,1,2.0015,2.3618l-0.0826,10.715a1.77421,1.77421,0,0,0,1.79781,1.6767,1.693,1.693,0,0,0,1.79229-1.6647l0.0825-10.6688C64.243,27.19385,60.38932,25.33725,58.67492,25.37725ZM88.446,25.59475a1.72365,1.72365,0,0,0-1.73481,1.7179l-0.1088,14.623a1.67248,1.67248,0,0,0,1.6975,1.7062,1.741,1.741,0,0,0,1.7896-1.7542L90.209,27.36405A1.89569,1.89569,0,0,0,88.446,25.59475Zm-6.07051-.0425a1.63877,1.63877,0,0,0-1.6877,1.5377l-0.0049.5972a8.85722,8.85722,0,0,0-5.7077-2.1846,9.11214,9.11214,0,0,0-9.061,8.9653,9.2427,9.2427,0,0,0,8.922,9.0763,9.08933,9.08933,0,0,0,5.723-2.0391l0.0013,0.428a1.66911,1.66911,0,0,0,1.7001,1.6682,1.69932,1.69932,0,0,0,1.7633-1.7146l0.113-14.6772A1.824,1.824,0,0,0,82.37552,25.55225Zm-7.4652,14.6516a5.68712,5.68712,0,1,1,5.7343-5.6428A5.68864,5.68864,0,0,1,74.91032,40.20385Zm25.397,0.0435a4.14935,4.14935,0,0,1-4.1561-4.248l0.1102-13.9014a1.75391,1.75391,0,0,0-3.4992-.027l-0.1068,13.9151a7.70846,7.70846,0,0,0,7.563,7.764,1.76216,1.76216,0,0,0,1.8029-1.7955A1.70416,1.70416,0,0,0,100.30732,40.24735Zm15.71771,9.9258a3.9381,3.9381,0,0,0-3.85631,3.8125l-0.024,3.1316a0.70252,0.70252,0,0,0,.68131.7105,0.71236,0.71236,0,0,0,.74759-0.6787l0.0246-3.1799a2.44951,2.44951,0,0,1,2.4061-2.3674,0.72275,0.72275,0,0,0,.7563-0.7197A0.70306,0.70306,0,0,0,116.025,50.17315Zm8.38819,3.8941a3.92888,3.92888,0,0,0-3.7911-3.8587l-0.0724.0039a3.87218,3.87218,0,0,0-3.8135,3.8086,3.92967,3.92967,0,0,0,3.794,3.86l0.0689-.0043A3.87386,3.87386,0,0,0,124.41322,54.06725Zm-3.8524,2.3927a2.4167,2.4167,0,0,1-2.3986-2.4087l0.0003-.0574a2.41293,2.41293,0,0,1,4.8254.0422l-0.0003.0591A2.40058,2.40058,0,0,1,120.56082,56.46Zm11.4447-6.164a0.71454,0.71454,0,0,0-.7281.6884l-0.02439,3.1485a2.424,2.424,0,0,1-4.84751-.0143l0.0241-3.1553a0.72229,0.72229,0,0,0-1.4439-.0243l-0.0243,3.1451a3.866,3.866,0,0,0,7.7312.0679l0.0247-3.1552A0.70765,0.70765,0,0,0,132.00552,50.296Zm5.1654,0.0432a3.75924,3.75924,0,0,0-2.4386.8911l0.002-.2533a0.69863,0.69863,0,0,0-.708-0.6654,0.777,0.777,0,0,0-.7605.692l-0.0705,9.2712a0.71191,0.71191,0,0,0,.7239.7258,0.739,0.739,0,0,0,.7586-0.7466l0.0256-3.1403a3.8656,3.8656,0,0,0,2.4084.8953,3.93053,3.93053,0,0,0,3.8521-3.8011A3.87319,3.87319,0,0,0,137.17092,50.33915Zm-0.06889,6.2481a2.41406,2.41406,0,0,1-2.37551-2.1021l0.0052-.6699A2.4169,2.4169,0,1,1,137.102,56.58725Zm-26.23431-6.454a0.69682,0.69682,0,0,0-.717.6543l-0.0019.2533a3.76821,3.76821,0,0,0-2.4256-.9287,3.87484,3.87484,0,0,0-3.8541,3.8096,3.93215,3.93215,0,0,0,3.795,3.8605,3.86281,3.86281,0,0,0,2.4314-.868s0.0107,0.2942.0224,0.3491a2.5242,2.5242,0,0,1-1.8722,2.0332,9.59552,9.59552,0,0,1-3.0425-.3221,0.6548,0.6548,0,0,0-.755.7183,0.8378,0.8378,0,0,0,.7355.7106,10.81337,10.81337,0,0,0,2.7019.3572,3.71027,3.71027,0,0,0,3.6816-3.6303l0.04881-6.2936A0.77553,0.77553,0,0,0,110.86772,50.13325Zm-3.173,6.2276a2.41682,2.41682,0,1,1,2.4381-2.3989A2.41821,2.41821,0,0,1,107.69472,56.36085Z"/>
</svg>
