<svg xmlns="http://www.w3.org/2000/svg" viewBox="0 0 132 80">
  <defs>
    <style>
      .a {
        fill: #f9303f;
      }
    </style>
  </defs>
  <title>logo</title>
  <path class="a" d="M58.40343,37.842c-1.0035.804-1.2759,3.0308-.1773,3.9291a2.79009,2.79009,0,0,0,3.8216-.4745,2.58641,2.58641,0,0,0-.1656-3.7264C60.78053,36.67215,59.69263,36.808,58.40343,37.842Zm-4.9953.7316a7.55494,7.55494,0,0,0-2.5132.9194c0.001-.0523-0.0026-0.1036-0.0052-0.1552,0.102-1.8235.151-3.6658,0.3306-5.4606,0.0218-.2147.0471-0.4362,0.0754-0.6609,0.5621-2.585,1.2798-4.0661,1.1944-5.2028a3.71094,3.71094,0,0,0-.3095-1.3665,2.38192,2.38192,0,0,0-.9518-0.9973,2.56052,2.56052,0,0,0-.4459-0.2744l-0.0149-.0094-0.0007.0016c-0.0835-.0403-0.1692-0.0782-0.2598-0.112a2.34421,2.34421,0,0,0-2.7282.7462,6.13126,6.13126,0,0,0-1.0522,2.5766c-0.3523,1.462-.7368,3.7359-1.1872,5.1683a6.211,6.211,0,0,1-1.87869,3.0711,1.34085,1.34085,0,0,1-2.1602-.9161,11.16292,11.16292,0,0,1-.0623-4.5919c0.1604-1.0466.906-1.1493,1.1041-2.8146,0.2462-2.0579-.8057-3.3003-2.6399-3.4777a2.79164,2.79164,0,0,0-2.9178,1.6257,9.92615,9.92615,0,0,0-.9785,4.0431c-0.0727,1.1051-.0656,2.3642-0.0779,3.4465-0.0406.0799-.0825,0.1592-0.127,0.2364-0.9018,1.5842-2.6795,3.2254-3.1283,2.9332a1.228,1.228,0,0,1-.1604-0.9295c-0.0247-1.8962.2851-5.3583,0.5514-7.8764,0.1585-1.5022-.7105-2.7142-2.6528-2.7262a3.6088,3.6088,0,0,0-2.7064,1.5123c-1.2071,1.288-2.1966,2.7701-3.1348,3.8583a0.7904,0.7904,0,0,1-.695.4261,0.75,0.75,0,0,1-.3013-0.7433c-0.013-1.2448.0298-1.0142,0.0315-2.2599,0-.2972-0.05-0.9389-0.0958-1.4062a2.3179,2.3179,0,0,0-2.7406-1.8838,2.60368,2.60368,0,0,0-1.7948,1.27c-0.6632,1.049-.9434,1.5585-1.5345,2.6493-0.4247.7836-.5514,1.0142-0.8082,1.4234a1.39065,1.39065,0,0,1-.8031.6794,0.36872,0.36872,0,0,1-.4336-0.3693c-0.0117-.6011-0.0376-1.9017-0.037-2.0884,0.0045-.7249.1439-2.4389-1.272-2.599-3.3849-.3802-3.8999,3.4027-3.9447,5.2281-0.049,1.9959-.0003,3.3962.0198,5.3918,0.0159,1.535.0117,2.4063,0.1244,3.9343a2.28133,2.28133,0,0,0,3.0506,2.1563,2.71569,2.71569,0,0,0,1.6712-1.5601c0.3491-.7573,1.0304-2.4986,1.4068-3.3092,0.4442-.9557.8908-2.1115,1.3395-2.9126a0.98435,0.98435,0,0,1,.8473-0.4826,0.51152,0.51152,0,0,1,.5014.5105c-0.0276.9025-.0984,1.6981-0.1669,2.599a8.55846,8.55846,0,0,0,.2426,3.5092,2.22771,2.22771,0,0,0,1.3136,1.2327,2.63208,2.63208,0,0,0,3.3192-1.1626c0.9453-1.752,1.2305-3.2562,2.0621-5.0654a1.89587,1.89587,0,0,1,1.2396-1.3025,0.65309,0.65309,0,0,1,.7443.5183,32.06648,32.06648,0,0,0,.1065,4.9806,3.29367,3.29367,0,0,0,3.7583,2.532,3.82328,3.82328,0,0,0,1.9384-.779c0.7749-.3063,1.7098-1.1954,2.7993-2.9913a8.58483,8.58483,0,0,0,1.676,2.8435,3.62639,3.62639,0,0,0,5.6519.4154,6.3658,6.3658,0,0,0,1.58709-2.1891c-0.0669.7287-.128,1.5048-0.18709,2.3131-5.4119,3.4443-8.2177,6.92-8.5278,10.5289-0.2783,3.241,1.4334,6.493,5.0829,8.6613a4.92087,4.92087,0,0,0,2.58791.8226,3.77069,3.77069,0,0,0,1.57009-.38c3.076-1.4866,3.6658-9.6559,4.5286-16.8617,1.33731-.7434,2.0424-1.136,3.8405-1.9605,0.9287-.4264,1.9475-0.4381,1.9069-2.2391C56.14324,39.72575,55.38713,38.31155,53.40813,38.57355Zm-9.3786,16.3883a0.44143,0.44143,0,0,1-.7551.1773,2.83712,2.83712,0,0,1-1.10119-2.5268c0.04779-.5485.41859-1.891,2.597-3.857A37.38365,37.38365,0,0,1,44.02953,54.96185Zm77.5262-17.6197a1.92069,1.92069,0,0,0-2.3937-.8564c-0.9317.4001-2.2482,1.213-2.506,1.0409l-0.0195-.016c-0.0169-.1828.0013-0.3663-0.00029-0.49-0.02281-1.8605.27469-5.2278,0.53709-7.7322,0.0088-.0643.0172-0.128,0.0263-0.19a2.07647,2.07647,0,0,0-.87-2.1621,2.9905,2.9905,0,0,0-1.7942-.518,3.60853,3.60853,0,0,0-2.7061,1.512c-1.2074,1.2883-2.1963,2.7707-3.13509,3.8586a0.79021,0.79021,0,0,1-.695.4258,0.74864,0.74864,0,0,1-.301-0.743c-0.01271-1.2451.02949-1.0145,0.03079-2.2603,0.0003-.2971-0.049-0.9388-0.0955-1.4061a2.31738,2.31738,0,0,0-2.7405-1.8839,2.60034,2.60034,0,0,0-1.7942,1.2704c-0.6635,1.0483-.9437,1.5582-1.5351,2.6493a20.74309,20.74309,0,0,1-1.1278,1.9245,1.22945,1.22945,0,0,1-.5953.6923,1.04635,1.04635,0,0,1-.3198-0.7479c-0.0085-.5127-0.1692-1.9118-0.1884-2.1134-0.1088-1.1464-.3027-3.4293-1.73119-3.8502a3.96783,3.96783,0,0,0-1.31691-.2894c-1.663-.1162-3.3069,1.503-4.537,2.4447-0.1773.1355-.41009,0.3144-0.6696,0.5135a6.37887,6.37887,0,0,0-3.2484-2.6123c-4.2575-1.5334-8.1275,1.9598-8.7182,6.0084a13.72691,13.72691,0,0,0-.7014,4.5429,7.33977,7.33977,0,0,1-4.1227,2.2236c-1.6133.2354-4.2019,0.1165-4.3964-2.2379a6.67825,6.67825,0,0,1,1.8319-5.5414c0.2049-.2313.5703-0.4768,0.7901-0.2277a1.06483,1.06483,0,0,1-.1867,1.1188,1.52023,1.52023,0,0,0,.0636,1.8523,1.62393,1.62393,0,0,0,1.8046.453,3.80773,3.80773,0,0,0,2.53111-2.5843c1.05379-2.6804-.28121-5.3463-2.947-5.8327a5.882,5.882,0,0,0-4.84171,1.3467,12.3735,12.3735,0,0,0-3.8028,11.7025c0.7638,3.1598,3.8272,4.9745,7.5056,4.7741a11.83627,11.83627,0,0,0,6.869-2.8759,7.22776,7.22776,0,0,0,1.224,1.5837c4.12491,4.0275,9.2422-.9661,10.8802-4.8101a10.39607,10.39607,0,0,0,.783-4.4227c0.2822-.1913.6456-0.4371,1.1525-0.7531,0.3654-.2283.6505-0.1046,0.7093,0.2793-0.0533,1.9358-.1708,4.17-0.228,4.9085-0.0646.8236-.1065,3.227-0.0497,4.2873,0.09061,1.6981,1.6605,2.3349,3.2101,1.9972a2.50513,2.50513,0,0,0,1.6708-1.5598c0.3491-.7576,1.0642-2.4836,1.4065-3.3091a14.7038,14.7038,0,0,1,1.6104-2.911,1.157,1.157,0,0,1,.8483-0.4826,0.51162,0.51162,0,0,1,.5007.5108c-0.0276.9022-.0987,1.6981-0.16719,2.599a8.5487,8.5487,0,0,0,.24259,3.5088,2.23056,2.23056,0,0,0,1.3139,1.2331,2.63195,2.63195,0,0,0,3.3186-1.1626c0.9453-1.752,1.2314-3.2562,2.0628-5.0657a1.896,1.896,0,0,1,1.2392-1.3026,0.65336,0.65336,0,0,1,.7443.5183,39.45677,39.45677,0,0,0,.04061,4.5397c0.014,0.2078.03179,0.3913,0.05449,0.5387a2.812,2.812,0,0,0,2.3282,2.3138,4.38061,4.38061,0,0,0,1.4408.1205,3.35921,3.35921,0,0,0,1.26851-.3689,6.70278,6.70278,0,0,0,1.51789-.708,7.822,7.822,0,0,0,2.8665-2.3933A3.1041,3.1041,0,0,0,121.55573,37.34215Zm-34.1184-.9466c-0.8814,1.7971-3.1504,4.2912-4.5523,1.6441-0.8934-1.6877-.4231-4.0823.3757-5.934,0.0608-.1225.1114-0.2345,0.1491-0.3309v-0.0013c0.151-.3206.3095-0.6223,0.4709-0.8954a1.58117,1.58117,0,0,0,.0938-0.1854,1.99156,1.99156,0,0,1,3.2728-.366C88.80973,31.77045,88.256,34.72765,87.43733,36.39555Z"/>
</svg>
